<?xml version="1.0" encoding="UTF-8" standalone="no"?>
<!-- Created with Inkscape (http://www.inkscape.org/) -->

<svg
   xmlns:osb="http://www.openswatchbook.org/uri/2009/osb"
   xmlns:dc="http://purl.org/dc/elements/1.1/"
   xmlns:cc="http://creativecommons.org/ns#"
   xmlns:rdf="http://www.w3.org/1999/02/22-rdf-syntax-ns#"
   xmlns:svg="http://www.w3.org/2000/svg"
   xmlns="http://www.w3.org/2000/svg"
   xmlns:xlink="http://www.w3.org/1999/xlink"
   xmlns:sodipodi="http://sodipodi.sourceforge.net/DTD/sodipodi-0.dtd"
   xmlns:inkscape="http://www.inkscape.org/namespaces/inkscape"
   width="744.09448819"
   height="1052.3622047"
   id="svg2"
   version="1.1"
   inkscape:version="0.48.2 r9819"
   sodipodi:docname="Direct.svg">
  <defs
     id="defs4">
    <linearGradient
       inkscape:collect="always"
       id="linearGradient5373">
      <stop
         style="stop-color:#e70000;stop-opacity:1;"
         offset="0"
         id="stop5375" />
      <stop
         style="stop-color:#e70000;stop-opacity:0;"
         offset="1"
         id="stop5377" />
    </linearGradient>
    <linearGradient
       id="linearGradient5321"
       osb:paint="solid">
      <stop
         style="stop-color:#000000;stop-opacity:1;"
         offset="0"
         id="stop5323" />
    </linearGradient>
    <radialGradient
       inkscape:collect="always"
       xlink:href="#linearGradient5373"
       id="radialGradient5381"
       cx="220"
       cy="919.86218"
       fx="220"
       fy="919.86218"
       r="10"
       gradientTransform="matrix(1,0,0,0.75,0,229.96555)"
       gradientUnits="userSpaceOnUse" />
  </defs>
  <sodipodi:namedview
     id="base"
     pagecolor="#ffffff"
     bordercolor="#666666"
     borderopacity="1.0"
     inkscape:pageopacity="0.0"
     inkscape:pageshadow="2"
     inkscape:zoom="1.7465436"
     inkscape:cx="376.78756"
     inkscape:cy="874.70286"
     inkscape:document-units="px"
     inkscape:current-layer="layer1"
     showgrid="true"
     inkscape:window-width="1680"
     inkscape:window-height="988"
     inkscape:window-x="-8"
     inkscape:window-y="-8"
     inkscape:window-maximized="1">
    <inkscape:grid
       type="xygrid"
       id="grid2985" />
  </sodipodi:namedview>
  <metadata
     id="metadata7">
    <rdf:RDF>
      <cc:Work
         rdf:about="">
        <dc:format>image/svg+xml</dc:format>
        <dc:type
           rdf:resource="http://purl.org/dc/dcmitype/StillImage" />
        <dc:title></dc:title>
      </cc:Work>
    </rdf:RDF>
  </metadata>
  <g
     inkscape:label="Layer 1"
     inkscape:groupmode="layer"
     id="layer1">
    <text
       xml:space="preserve"
       style="font-size:14.31273651px;font-style:normal;font-variant:normal;font-weight:normal;font-stretch:normal;text-align:start;line-height:125%;letter-spacing:0px;word-spacing:0px;writing-mode:lr-tb;text-anchor:start;fill:#000000;fill-opacity:1;stroke:none;font-family:Sans;-inkscape-font-specification:Sans"
       x="25.954473"
       y="269.50873"
       id="text4116-1-2-2"
       sodipodi:linespacing="125%"
       transform="scale(0.95550655,1.0465653)"><tspan
         sodipodi:role="line"
         id="tspan4198"
         x="25.954473"
         y="269.50873">Intermediate Grid Potential</tspan></text>
    <path
       style="fill:#0000ff;stroke:#000000;stroke-width:1px;stroke-linecap:butt;stroke-linejoin:miter;stroke-opacity:1;fill-opacity:1"
       d="m 386,226.3622 20,0 0,-10 5,0 0,20 -5,0 0,-10 0,0"
       id="path5567-28-9"
       inkscape:connector-curvature="0" />
    <path
       style="fill:#0000ff;stroke:#000000;stroke-width:1px;stroke-linecap:butt;stroke-linejoin:miter;stroke-opacity:1;fill-opacity:1"
       d="m 411,226.3622 20,0 0,-10 5,0 0,20 -5,0 0,-10 0,0"
       id="path5567-20-1"
       inkscape:connector-curvature="0" />
    <path
       style="fill:#0000ff;stroke:#000000;stroke-width:1px;stroke-linecap:butt;stroke-linejoin:miter;stroke-opacity:1;fill-opacity:1"
       d="m 436,226.3622 20,0 0,-10 5,0 0,20 -5,0 0,-10 0,0"
       id="path5567-5-3"
       inkscape:connector-curvature="0" />
    <path
       style="fill:#0000ff;stroke:#000000;stroke-width:1px;stroke-linecap:butt;stroke-linejoin:miter;stroke-opacity:1;fill-opacity:1"
       d="m 461,226.3622 20,0 0,-10 5,0 0,20 -5,0 0,-10 0,0"
       id="path5567-52-5"
       inkscape:connector-curvature="0" />
    <path
       style="fill:#0000ff;stroke:#000000;stroke-width:1px;stroke-linecap:butt;stroke-linejoin:miter;stroke-opacity:1;fill-opacity:1"
       d="m 486,226.3622 20,0 0,-10 5,0 0,20 -5,0 0,-10 0,0"
       id="path5567-7-9"
       inkscape:connector-curvature="0" />
    <path
       style="fill:#0000ff;stroke:#000000;stroke-width:1px;stroke-linecap:butt;stroke-linejoin:miter;stroke-opacity:1;fill-opacity:1"
       d="m 511,226.3622 20,0 0,-10 5,0 0,20 -5,0 0,-10 0,0"
       id="path5567-6-8"
       inkscape:connector-curvature="0" />
    <path
       style="fill:#0000ff;stroke:#000000;stroke-width:1px;stroke-linecap:butt;stroke-linejoin:miter;stroke-opacity:1;fill-opacity:1"
       d="m 536,226.3622 20,0 0,-10 5,0 0,20 -5,0 0,-10 0,0"
       id="path5567-78-4"
       inkscape:connector-curvature="0" />
    <path
       style="fill:#0000ff;stroke:#000000;stroke-width:1px;stroke-linecap:butt;stroke-linejoin:miter;stroke-opacity:1;fill-opacity:1"
       d="m 561,226.3622 20,0 0,-10 5,0 0,20 -5,0 0,-10 0,0"
       id="path5567-781-0"
       inkscape:connector-curvature="0" />
    <path
       style="fill:#0000ff;stroke:#000000;stroke-width:1px;stroke-linecap:butt;stroke-linejoin:miter;stroke-opacity:1;fill-opacity:1"
       d="m 586,226.3622 20,0 0,-10 5,0 0,20 -5,0 0,-10 0,0"
       id="path5567-60-7"
       inkscape:connector-curvature="0" />
    <path
       style="fill:#0000ff;stroke:#000000;stroke-width:1px;stroke-linecap:butt;stroke-linejoin:miter;stroke-opacity:1;fill-opacity:1"
       d="m 611,226.3622 20,0 0,-10 5,0 0,20 -5,0 0,-10 0,0"
       id="path5567-95-6"
       inkscape:connector-curvature="0" />
    <path
       style="fill:#0000ff;stroke:#000000;stroke-width:1px;stroke-linecap:butt;stroke-linejoin:miter;stroke-opacity:1;fill-opacity:1"
       d="m 636,226.3622 20,0 0,-10 5,0 0,20 -5,0 0,-10 0,0"
       id="path5567-8-3"
       inkscape:connector-curvature="0" />
    <path
       style="fill:#0000ff;stroke:#000000;stroke-width:1px;stroke-linecap:butt;stroke-linejoin:miter;stroke-opacity:1;fill-opacity:1"
       d="m 661,226.3622 20,0 0,-10 5,0 0,20 -5,0 0,-10 0,0"
       id="path5567-90-6"
       inkscape:connector-curvature="0" />
    <path
       style="fill:none;stroke:#000000;stroke-width:1px;stroke-linecap:butt;stroke-linejoin:miter;stroke-opacity:1"
       d="m 686,226.3622 20,0 0,-10 5,0 0,20 -5,0 0,-10 0,0"
       id="path5567-00-1"
       inkscape:connector-curvature="0" />
    <path
       style="fill:none;stroke:#000000;stroke-width:1px;stroke-linecap:butt;stroke-linejoin:miter;stroke-opacity:1"
       d="m 711,226.3622 20,0 0,0"
       id="path5769-5"
       inkscape:connector-curvature="0" />
    <path
       style="fill:#0000ff;fill-opacity:1;stroke:#000000;stroke-width:1px;stroke-linecap:butt;stroke-linejoin:miter;stroke-opacity:1"
       d="m 190,74.362183 20,0 0,-10 5,0 0,20 -5,0 0,-10 0,0"
       id="path5567-08-5-1"
       inkscape:connector-curvature="0" />
    <path
       style="fill:#0000ff;fill-opacity:1;stroke:#000000;stroke-width:1px;stroke-linecap:butt;stroke-linejoin:miter;stroke-opacity:1"
       d="m 290,74.362183 20,0 0,-10 5,0 0,20 -5,0 0,-10 0,0"
       id="path5567-5-4-6"
       inkscape:connector-curvature="0" />
    <path
       style="fill:#0000ff;fill-opacity:1;stroke:#000000;stroke-width:1px;stroke-linecap:butt;stroke-linejoin:miter;stroke-opacity:1"
       d="m 390,74.362183 20,0 0,-10 5,0 0,20 -5,0 0,-10 0,0"
       id="path5567-78-8-5"
       inkscape:connector-curvature="0" />
    <path
       style="fill:#0000ff;fill-opacity:1;stroke:#000000;stroke-width:1px;stroke-linecap:butt;stroke-linejoin:miter;stroke-opacity:1"
       d="m 490,74.362183 20,0 0,-10 5,0 0,20 -5,0 0,-10 0,0"
       id="path5567-8-8-7"
       inkscape:connector-curvature="0" />
    <path
       style="fill:#0000ff;fill-opacity:1;stroke:#000000;stroke-width:1px;stroke-linecap:butt;stroke-linejoin:miter;stroke-opacity:1"
       d="m 590,74.362183 20,0 0,-10 5,0 0,20 -5,0 0,-10 0,0"
       id="path5567-55-9-5"
       inkscape:connector-curvature="0" />
    <path
       style="fill:#0000ff;stroke:#000000;stroke-width:1px;stroke-linecap:butt;stroke-linejoin:miter;stroke-opacity:1;fill-opacity:1"
       d="m 690,74.362183 20,0 0,-10 5,0 0,20 -5,0 0,-10 0,0"
       id="path5567-46-98-4"
       inkscape:connector-curvature="0" />
    <path
       style="fill:none;stroke:#000000;stroke-width:1px;stroke-linecap:butt;stroke-linejoin:miter;stroke-opacity:1"
       d="m 715,74.362183 20,0 0,0"
       id="path5769-2-1"
       inkscape:connector-curvature="0" />
    <path
       style="fill:#0000ff;stroke:#000000;stroke-width:1px;stroke-linecap:butt;stroke-linejoin:miter;stroke-opacity:1;fill-opacity:1"
       d="m 90,74.362183 20,0 0,-10 5,0 0,20 -5,0 0,-10 0,0"
       id="path5567-723-9-2"
       inkscape:connector-curvature="0" />
    <path
       style="fill:none;stroke:#000000;stroke-width:1px;stroke-linecap:butt;stroke-linejoin:miter;stroke-opacity:1"
       d="m 115,74.362183 25,0 0,0"
       id="path6247-00"
       inkscape:connector-curvature="0" />
    <path
       style="fill:none;stroke:#000000;stroke-width:1px;stroke-linecap:butt;stroke-linejoin:miter;stroke-opacity:1"
       d="m 140,74.362183 25,0 0,0"
       id="path6247-03-7"
       inkscape:connector-curvature="0" />
    <path
       style="fill:none;stroke:#000000;stroke-width:1px;stroke-linecap:butt;stroke-linejoin:miter;stroke-opacity:1"
       d="m 165,74.362183 25,0 0,0"
       id="path6247-62-73"
       inkscape:connector-curvature="0" />
    <path
       style="fill:none;stroke:#000000;stroke-width:1px;stroke-linecap:butt;stroke-linejoin:miter;stroke-opacity:1"
       d="m 215,74.362183 25,0 0,0"
       id="path6247-02-3"
       inkscape:connector-curvature="0" />
    <path
       style="fill:none;stroke:#000000;stroke-width:1px;stroke-linecap:butt;stroke-linejoin:miter;stroke-opacity:1"
       d="m 240,74.362183 25,0 0,0"
       id="path6247-03-8-5"
       inkscape:connector-curvature="0" />
    <path
       style="fill:none;stroke:#000000;stroke-width:1px;stroke-linecap:butt;stroke-linejoin:miter;stroke-opacity:1"
       d="m 265,74.362183 25,0 0,0"
       id="path6247-62-4-9"
       inkscape:connector-curvature="0" />
    <path
       style="fill:none;stroke:#000000;stroke-width:1px;stroke-linecap:butt;stroke-linejoin:miter;stroke-opacity:1"
       d="m 315,74.362183 25,0 0,0"
       id="path6247-18-9"
       inkscape:connector-curvature="0" />
    <path
       style="fill:none;stroke:#000000;stroke-width:1px;stroke-linecap:butt;stroke-linejoin:miter;stroke-opacity:1"
       d="m 340,74.362183 25,0 0,0"
       id="path6247-03-3-8"
       inkscape:connector-curvature="0" />
    <path
       style="fill:none;stroke:#000000;stroke-width:1px;stroke-linecap:butt;stroke-linejoin:miter;stroke-opacity:1"
       d="m 365,74.362183 25,0 0,0"
       id="path6247-62-7-1"
       inkscape:connector-curvature="0" />
    <path
       style="fill:none;stroke:#000000;stroke-width:1px;stroke-linecap:butt;stroke-linejoin:miter;stroke-opacity:1"
       d="m 415,74.362183 25,0 0,0"
       id="path6247-5-8"
       inkscape:connector-curvature="0" />
    <path
       style="fill:none;stroke:#000000;stroke-width:1px;stroke-linecap:butt;stroke-linejoin:miter;stroke-opacity:1"
       d="m 440,74.362183 25,0 0,0"
       id="path6247-03-81-2"
       inkscape:connector-curvature="0" />
    <path
       style="fill:none;stroke:#000000;stroke-width:1px;stroke-linecap:butt;stroke-linejoin:miter;stroke-opacity:1"
       d="m 465,74.362183 25,0 0,0"
       id="path6247-62-70-6"
       inkscape:connector-curvature="0" />
    <path
       style="fill:none;stroke:#000000;stroke-width:1px;stroke-linecap:butt;stroke-linejoin:miter;stroke-opacity:1"
       d="m 515,74.362183 25,0 0,0"
       id="path6247-4-6"
       inkscape:connector-curvature="0" />
    <path
       style="fill:none;stroke:#000000;stroke-width:1px;stroke-linecap:butt;stroke-linejoin:miter;stroke-opacity:1"
       d="m 540,74.362183 25,0 0,0"
       id="path6247-03-88-0"
       inkscape:connector-curvature="0" />
    <path
       style="fill:none;stroke:#000000;stroke-width:1px;stroke-linecap:butt;stroke-linejoin:miter;stroke-opacity:1"
       d="m 565,74.362183 25,0 0,0"
       id="path6247-62-1-3"
       inkscape:connector-curvature="0" />
    <path
       style="fill:none;stroke:#000000;stroke-width:1px;stroke-linecap:butt;stroke-linejoin:miter;stroke-opacity:1"
       d="m 615,74.362183 25,0 0,0"
       id="path6247-3-8"
       inkscape:connector-curvature="0" />
    <path
       style="fill:none;stroke:#000000;stroke-width:1px;stroke-linecap:butt;stroke-linejoin:miter;stroke-opacity:1"
       d="m 640,74.362183 25,0 0,0"
       id="path6247-03-6-0"
       inkscape:connector-curvature="0" />
    <path
       style="fill:none;stroke:#000000;stroke-width:1px;stroke-linecap:butt;stroke-linejoin:miter;stroke-opacity:1"
       d="m 665,74.362183 25,0 0,0"
       id="path6247-62-78-1"
       inkscape:connector-curvature="0" />
    <text
       xml:space="preserve"
       style="font-size:14.31273651px;font-style:normal;font-variant:normal;font-weight:normal;font-stretch:normal;text-align:start;line-height:125%;letter-spacing:0px;word-spacing:0px;writing-mode:lr-tb;text-anchor:start;fill:#000000;fill-opacity:1;stroke:none;font-family:Sans;-inkscape-font-specification:Sans"
       x="23.861374"
       y="195.96912"
       id="text4116-1-2-2-9"
       sodipodi:linespacing="125%"
       transform="scale(0.95550655,1.0465653)"><tspan
         sodipodi:role="line"
         id="tspan4198-4"
         x="23.861374"
         y="195.96912">Intermediate Grid Charge</tspan></text>
    <text
       xml:space="preserve"
       style="font-size:14.31273651px;font-style:normal;font-variant:normal;font-weight:normal;font-stretch:normal;text-align:start;line-height:125%;letter-spacing:0px;word-spacing:0px;writing-mode:lr-tb;text-anchor:start;fill:#000000;fill-opacity:1;stroke:none;font-family:Sans;-inkscape-font-specification:Sans"
       x="24.483358"
       y="47.16544"
       id="text4116-1-2-8-7"
       sodipodi:linespacing="125%"
       transform="scale(0.95550655,1.0465653)"><tspan
         sodipodi:role="line"
         id="tspan4230"
         x="24.483358"
         y="47.16544">Coarsest Grid Charge</tspan></text>
    <path
       style="fill:none;fill-opacity:0;stroke:#000000;stroke-width:1px;stroke-linecap:butt;stroke-linejoin:miter;stroke-opacity:1"
       d="m 192,130.36218 20,0 0,-10 5,0 0,20 -5,0 0,-10 0,0"
       id="path5567-08-5"
       inkscape:connector-curvature="0" />
    <path
       style="fill:#ff0000;fill-opacity:1;stroke:#000000;stroke-width:1px;stroke-linecap:butt;stroke-linejoin:miter;stroke-opacity:1"
       d="m 292,130.36218 20,0 0,-10 5,0 0,20 -5,0 0,-10 0,0"
       id="path5567-5-4"
       inkscape:connector-curvature="0" />
    <path
       style="fill:none;fill-opacity:1;stroke:#000000;stroke-width:1px;stroke-linecap:butt;stroke-linejoin:miter;stroke-opacity:1"
       d="m 392,130.36218 20,0 0,-10 5,0 0,20 -5,0 0,-10 0,0"
       id="path5567-78-8"
       inkscape:connector-curvature="0" />
    <path
       style="fill:none;fill-opacity:0;stroke:#000000;stroke-width:1px;stroke-linecap:butt;stroke-linejoin:miter;stroke-opacity:1"
       d="m 492,130.36218 20,0 0,-10 5,0 0,20 -5,0 0,-10 0,0"
       id="path5567-8-8"
       inkscape:connector-curvature="0" />
    <path
       style="fill:none;fill-opacity:0;stroke:#000000;stroke-width:1px;stroke-linecap:butt;stroke-linejoin:miter;stroke-opacity:1"
       d="m 592,130.36218 20,0 0,-10 5,0 0,20 -5,0 0,-10 0,0"
       id="path5567-55-9"
       inkscape:connector-curvature="0" />
    <path
       style="fill:none;fill-opacity:0;stroke:#000000;stroke-width:1px;stroke-linecap:butt;stroke-linejoin:miter;stroke-opacity:1"
       d="m 692,130.36218 20,0 0,-10 5,0 0,20 -5,0 0,-10 0,0"
       id="path5567-46-98"
       inkscape:connector-curvature="0" />
    <path
       style="fill:none;fill-opacity:0;stroke:#000000;stroke-width:1px;stroke-linecap:butt;stroke-linejoin:miter;stroke-opacity:1"
       d="m 717,130.36218 20,0 0,0"
       id="path5769-2"
       inkscape:connector-curvature="0" />
    <path
       style="fill:none;fill-opacity:0;stroke:#000000;stroke-width:1px;stroke-linecap:butt;stroke-linejoin:miter;stroke-opacity:1"
       d="m 92,130.36218 20,0 0,-10 5,0 0,20 -5,0 0,-10 0,0"
       id="path5567-723-9"
       inkscape:connector-curvature="0" />
    <path
       style="fill:none;fill-opacity:0;stroke:#000000;stroke-width:1px;stroke-linecap:butt;stroke-linejoin:miter;stroke-opacity:1"
       d="m 117,130.36218 25,0 0,0"
       id="path6247"
       inkscape:connector-curvature="0" />
    <path
       style="fill:none;fill-opacity:0;stroke:#000000;stroke-width:1px;stroke-linecap:butt;stroke-linejoin:miter;stroke-opacity:1"
       d="m 142,130.36218 25,0 0,0"
       id="path6247-03"
       inkscape:connector-curvature="0" />
    <path
       style="fill:none;fill-opacity:0;stroke:#000000;stroke-width:1px;stroke-linecap:butt;stroke-linejoin:miter;stroke-opacity:1"
       d="m 167,130.36218 25,0 0,0"
       id="path6247-62"
       inkscape:connector-curvature="0" />
    <path
       style="fill:none;fill-opacity:0;stroke:#000000;stroke-width:1px;stroke-linecap:butt;stroke-linejoin:miter;stroke-opacity:1"
       d="m 217,130.36218 25,0 0,0"
       id="path6247-02"
       inkscape:connector-curvature="0" />
    <path
       style="fill:none;fill-opacity:0;stroke:#000000;stroke-width:1px;stroke-linecap:butt;stroke-linejoin:miter;stroke-opacity:1"
       d="m 242,130.36218 25,0 0,0"
       id="path6247-03-8"
       inkscape:connector-curvature="0" />
    <path
       style="fill:none;fill-opacity:0;stroke:#000000;stroke-width:1px;stroke-linecap:butt;stroke-linejoin:miter;stroke-opacity:1"
       d="m 267,130.36218 25,0 0,0"
       id="path6247-62-4"
       inkscape:connector-curvature="0" />
    <path
       style="fill:none;fill-opacity:0;stroke:#000000;stroke-width:1px;stroke-linecap:butt;stroke-linejoin:miter;stroke-opacity:1"
       d="m 317,130.36218 25,0 0,0"
       id="path6247-18"
       inkscape:connector-curvature="0" />
    <path
       style="fill:none;fill-opacity:0;stroke:#000000;stroke-width:1px;stroke-linecap:butt;stroke-linejoin:miter;stroke-opacity:1"
       d="m 342,130.36218 25,0 0,0"
       id="path6247-03-3"
       inkscape:connector-curvature="0" />
    <path
       style="fill:none;fill-opacity:0;stroke:#000000;stroke-width:1px;stroke-linecap:butt;stroke-linejoin:miter;stroke-opacity:1"
       d="m 367,130.36218 25,0 0,0"
       id="path6247-62-7"
       inkscape:connector-curvature="0" />
    <path
       style="fill:none;fill-opacity:0;stroke:#000000;stroke-width:1px;stroke-linecap:butt;stroke-linejoin:miter;stroke-opacity:1"
       d="m 417,130.36218 25,0 0,0"
       id="path6247-5"
       inkscape:connector-curvature="0" />
    <path
       style="fill:none;fill-opacity:0;stroke:#000000;stroke-width:1px;stroke-linecap:butt;stroke-linejoin:miter;stroke-opacity:1"
       d="m 442,130.36218 25,0 0,0"
       id="path6247-03-81"
       inkscape:connector-curvature="0" />
    <path
       style="fill:none;fill-opacity:0;stroke:#000000;stroke-width:1px;stroke-linecap:butt;stroke-linejoin:miter;stroke-opacity:1"
       d="m 467,130.36218 25,0 0,0"
       id="path6247-62-70"
       inkscape:connector-curvature="0" />
    <path
       style="fill:none;fill-opacity:0;stroke:#000000;stroke-width:1px;stroke-linecap:butt;stroke-linejoin:miter;stroke-opacity:1"
       d="m 517,130.36218 25,0 0,0"
       id="path6247-4"
       inkscape:connector-curvature="0" />
    <path
       style="fill:none;fill-opacity:0;stroke:#000000;stroke-width:1px;stroke-linecap:butt;stroke-linejoin:miter;stroke-opacity:1"
       d="m 542,130.36218 25,0 0,0"
       id="path6247-03-88"
       inkscape:connector-curvature="0" />
    <path
       style="fill:none;fill-opacity:0;stroke:#000000;stroke-width:1px;stroke-linecap:butt;stroke-linejoin:miter;stroke-opacity:1"
       d="m 567,130.36218 25,0 0,0"
       id="path6247-62-1"
       inkscape:connector-curvature="0" />
    <path
       style="fill:none;fill-opacity:0;stroke:#000000;stroke-width:1px;stroke-linecap:butt;stroke-linejoin:miter;stroke-opacity:1"
       d="m 617,130.36218 25,0 0,0"
       id="path6247-3"
       inkscape:connector-curvature="0" />
    <path
       style="fill:none;fill-opacity:0;stroke:#000000;stroke-width:1px;stroke-linecap:butt;stroke-linejoin:miter;stroke-opacity:1"
       d="m 642,130.36218 25,0 0,0"
       id="path6247-03-6"
       inkscape:connector-curvature="0" />
    <path
       style="fill:none;fill-opacity:0;stroke:#000000;stroke-width:1px;stroke-linecap:butt;stroke-linejoin:miter;stroke-opacity:1"
       d="m 667,130.36218 25,0 0,0"
       id="path6247-62-78"
       inkscape:connector-curvature="0" />
    <text
       xml:space="preserve"
       style="font-size:14.31273651px;font-style:normal;font-variant:normal;font-weight:normal;font-stretch:normal;text-align:start;line-height:125%;letter-spacing:0px;word-spacing:0px;writing-mode:lr-tb;text-anchor:start;fill:#000000;fill-opacity:1;stroke:none;font-family:Sans;-inkscape-font-specification:Sans"
       x="24.483358"
       y="106.40738"
       id="text4116-1-2-8"
       sodipodi:linespacing="125%"
       transform="scale(0.95550655,1.0465653)"><tspan
         sodipodi:role="line"
         id="tspan5367"
         x="24.483358"
         y="106.40738">Coarsest Grid Potential</tspan></text>
    <path
       style="fill:none;stroke:#000000;stroke-width:1px;stroke-linecap:butt;stroke-linejoin:miter;stroke-opacity:1"
       d="m 62,226.3622 20,0 0,-10 5,0 0,20 -5,0 0,-10 0,0"
       id="path5567-28-9-8"
       inkscape:connector-curvature="0" />
    <path
       style="fill:none;stroke:#000000;stroke-width:1px;stroke-linecap:butt;stroke-linejoin:miter;stroke-opacity:1"
       d="m 87,226.3622 20,0 0,-10 5,0 0,20 -5,0 0,-10 0,0"
       id="path5567-20-1-3"
       inkscape:connector-curvature="0" />
    <path
       style="fill:none;stroke:#000000;stroke-width:1px;stroke-linecap:butt;stroke-linejoin:miter;stroke-opacity:1"
       d="m 112,226.3622 20,0 0,-10 5,0 0,20 -5,0 0,-10 0,0"
       id="path5567-5-3-5"
       inkscape:connector-curvature="0" />
    <path
       style="fill:none;stroke:#000000;stroke-width:1px;stroke-linecap:butt;stroke-linejoin:miter;stroke-opacity:1"
       d="m 137,226.3622 20,0 0,-10 5,0 0,20 -5,0 0,-10 0,0"
       id="path5567-52-5-1"
       inkscape:connector-curvature="0" />
    <path
       style="fill:none;stroke:#000000;stroke-width:1px;stroke-linecap:butt;stroke-linejoin:miter;stroke-opacity:1"
       d="m 162,226.3622 20,0 0,-10 5,0 0,20 -5,0 0,-10 0,0"
       id="path5567-7-9-2"
       inkscape:connector-curvature="0" />
    <path
       style="fill:none;stroke:#000000;stroke-width:1px;stroke-linecap:butt;stroke-linejoin:miter;stroke-opacity:1"
       d="m 187,226.3622 20,0 0,-10 5,0 0,20 -5,0 0,-10 0,0"
       id="path5567-6-8-0"
       inkscape:connector-curvature="0" />
    <path
       style="fill:none;stroke:#000000;stroke-width:1px;stroke-linecap:butt;stroke-linejoin:miter;stroke-opacity:1"
       d="m 212,226.3622 20,0 0,-10 5,0 0,20 -5,0 0,-10 0,0"
       id="path5567-78-4-1"
       inkscape:connector-curvature="0" />
    <path
       style="fill:none;stroke:#000000;stroke-width:1px;stroke-linecap:butt;stroke-linejoin:miter;stroke-opacity:1"
       d="m 237,226.3622 20,0 0,-10 5,0 0,20 -5,0 0,-10 0,0"
       id="path5567-781-0-6"
       inkscape:connector-curvature="0" />
    <path
       style="fill:#0000ff;stroke:#000000;stroke-width:1px;stroke-linecap:butt;stroke-linejoin:miter;stroke-opacity:1;fill-opacity:1"
       d="m 262,226.3622 20,0 0,-10 5,0 0,20 -5,0 0,-10 0,0"
       id="path5567-60-7-4"
       inkscape:connector-curvature="0" />
    <path
       style="fill:#0000ff;stroke:#000000;stroke-width:1px;stroke-linecap:butt;stroke-linejoin:miter;stroke-opacity:1;fill-opacity:1"
       d="m 287,226.3622 20,0 0,-10 5,0 0,20 -5,0 0,-10 0,0"
       id="path5567-95-6-0"
       inkscape:connector-curvature="0" />
    <path
       style="fill:#0000ff;stroke:#000000;stroke-width:1px;stroke-linecap:butt;stroke-linejoin:miter;stroke-opacity:1;fill-opacity:1"
       d="m 312,226.3622 20,0 0,-10 5,0 0,20 -5,0 0,-10 0,0"
       id="path5567-8-3-6"
       inkscape:connector-curvature="0" />
    <path
       style="fill:#0000ff;stroke:#000000;stroke-width:1px;stroke-linecap:butt;stroke-linejoin:miter;stroke-opacity:1;fill-opacity:1"
       d="m 337,226.3622 20,0 0,-10 5,0 0,20 -5,0 0,-10 0,0"
       id="path5567-90-6-1"
       inkscape:connector-curvature="0" />
    <path
       style="fill:#0000ff;stroke:#000000;stroke-width:1px;stroke-linecap:butt;stroke-linejoin:miter;stroke-opacity:1;fill-opacity:1"
       d="m 362,226.3622 20,0 0,-10 5,0 0,20 -5,0 0,-10 0,0"
       id="path5567-00-1-8"
       inkscape:connector-curvature="0" />
    <path
       style="fill:none;stroke:#000000;stroke-width:1px;stroke-linecap:butt;stroke-linejoin:miter;stroke-opacity:1"
       d="m 386,306.3622 20,0 0,-10 5,0 0,20 -5,0 0,-10 0,0"
       id="path5567-28-9-3"
       inkscape:connector-curvature="0" />
    <path
       style="fill:none;stroke:#000000;stroke-width:1px;stroke-linecap:butt;stroke-linejoin:miter;stroke-opacity:1"
       d="m 411,306.3622 20,0 0,-10 5,0 0,20 -5,0 0,-10 0,0"
       id="path5567-20-1-7"
       inkscape:connector-curvature="0" />
    <path
       style="fill:none;stroke:#000000;stroke-width:1px;stroke-linecap:butt;stroke-linejoin:miter;stroke-opacity:1"
       d="m 436,306.3622 20,0 0,-10 5,0 0,20 -5,0 0,-10 0,0"
       id="path5567-5-3-1"
       inkscape:connector-curvature="0" />
    <path
       style="fill:#ff0000;stroke:#000000;stroke-width:1px;stroke-linecap:butt;stroke-linejoin:miter;stroke-opacity:1;fill-opacity:1"
       d="m 461,306.3622 20,0 0,-10 5,0 0,20 -5,0 0,-10 0,0"
       id="path5567-52-5-0"
       inkscape:connector-curvature="0" />
    <path
       style="fill:none;stroke:#000000;stroke-width:1px;stroke-linecap:butt;stroke-linejoin:miter;stroke-opacity:1"
       d="m 486,306.3622 20,0 0,-10 5,0 0,20 -5,0 0,-10 0,0"
       id="path5567-7-9-7"
       inkscape:connector-curvature="0" />
    <path
       style="fill:#000000;stroke:#000000;stroke-width:1px;stroke-linecap:butt;stroke-linejoin:miter;stroke-opacity:1;fill-opacity:0"
       d="m 511,306.3622 20,0 0,-10 5,0 0,20 -5,0 0,-10 0,0"
       id="path5567-6-8-3"
       inkscape:connector-curvature="0" />
    <path
       style="fill:none;stroke:#000000;stroke-width:1px;stroke-linecap:butt;stroke-linejoin:miter;stroke-opacity:1"
       d="m 536,306.3622 20,0 0,-10 5,0 0,20 -5,0 0,-10 0,0"
       id="path5567-78-4-4"
       inkscape:connector-curvature="0" />
    <path
       style="fill:none;stroke:#000000;stroke-width:1px;stroke-linecap:butt;stroke-linejoin:miter;stroke-opacity:1"
       d="m 561,306.3622 20,0 0,-10 5,0 0,20 -5,0 0,-10 0,0"
       id="path5567-781-0-9"
       inkscape:connector-curvature="0" />
    <path
       style="fill:none;stroke:#000000;stroke-width:1px;stroke-linecap:butt;stroke-linejoin:miter;stroke-opacity:1"
       d="m 586,306.3622 20,0 0,-10 5,0 0,20 -5,0 0,-10 0,0"
       id="path5567-60-7-6"
       inkscape:connector-curvature="0" />
    <path
       style="fill:none;stroke:#000000;stroke-width:1px;stroke-linecap:butt;stroke-linejoin:miter;stroke-opacity:1"
       d="m 611,306.3622 20,0 0,-10 5,0 0,20 -5,0 0,-10 0,0"
       id="path5567-95-6-5"
       inkscape:connector-curvature="0" />
    <path
       style="fill:none;stroke:#000000;stroke-width:1px;stroke-linecap:butt;stroke-linejoin:miter;stroke-opacity:1"
       d="m 636,306.3622 20,0 0,-10 5,0 0,20 -5,0 0,-10 0,0"
       id="path5567-8-3-1"
       inkscape:connector-curvature="0" />
    <path
       style="fill:none;stroke:#000000;stroke-width:1px;stroke-linecap:butt;stroke-linejoin:miter;stroke-opacity:1"
       d="m 661,306.3622 20,0 0,-10 5,0 0,20 -5,0 0,-10 0,0"
       id="path5567-90-6-0"
       inkscape:connector-curvature="0" />
    <path
       style="fill:none;stroke:#000000;stroke-width:1px;stroke-linecap:butt;stroke-linejoin:miter;stroke-opacity:1"
       d="m 686,306.3622 20,0 0,-10 5,0 0,20 -5,0 0,-10 0,0"
       id="path5567-00-1-9"
       inkscape:connector-curvature="0" />
    <path
       style="fill:none;stroke:#000000;stroke-width:1px;stroke-linecap:butt;stroke-linejoin:miter;stroke-opacity:1"
       d="m 711,306.3622 20,0 0,0"
       id="path5769-5-9"
       inkscape:connector-curvature="0" />
    <path
       style="fill:none;stroke:#000000;stroke-width:1px;stroke-linecap:butt;stroke-linejoin:miter;stroke-opacity:1"
       d="m 62,306.3622 20,0 0,-10 5,0 0,20 -5,0 0,-10 0,0"
       id="path5567-28-9-8-6"
       inkscape:connector-curvature="0" />
    <path
       style="fill:none;stroke:#000000;stroke-width:1px;stroke-linecap:butt;stroke-linejoin:miter;stroke-opacity:1"
       d="m 87,306.3622 20,0 0,-10 5,0 0,20 -5,0 0,-10 0,0"
       id="path5567-20-1-3-8"
       inkscape:connector-curvature="0" />
    <path
       style="fill:none;stroke:#000000;stroke-width:1px;stroke-linecap:butt;stroke-linejoin:miter;stroke-opacity:1"
       d="m 112,306.3622 20,0 0,-10 5,0 0,20 -5,0 0,-10 0,0"
       id="path5567-5-3-5-3"
       inkscape:connector-curvature="0" />
    <path
       style="fill:none;stroke:#000000;stroke-width:1px;stroke-linecap:butt;stroke-linejoin:miter;stroke-opacity:1"
       d="m 137,306.3622 20,0 0,-10 5,0 0,20 -5,0 0,-10 0,0"
       id="path5567-52-5-1-4"
       inkscape:connector-curvature="0" />
    <path
       style="fill:none;stroke:#000000;stroke-width:1px;stroke-linecap:butt;stroke-linejoin:miter;stroke-opacity:1"
       d="m 162,306.3622 20,0 0,-10 5,0 0,20 -5,0 0,-10 0,0"
       id="path5567-7-9-2-8"
       inkscape:connector-curvature="0" />
    <path
       style="fill:none;stroke:#000000;stroke-width:1px;stroke-linecap:butt;stroke-linejoin:miter;stroke-opacity:1"
       d="m 187,306.3622 20,0 0,-10 5,0 0,20 -5,0 0,-10 0,0"
       id="path5567-6-8-0-4"
       inkscape:connector-curvature="0" />
    <path
       style="fill:none;stroke:#000000;stroke-width:1px;stroke-linecap:butt;stroke-linejoin:miter;stroke-opacity:1"
       d="m 212,306.3622 20,0 0,-10 5,0 0,20 -5,0 0,-10 0,0"
       id="path5567-78-4-1-9"
       inkscape:connector-curvature="0" />
    <path
       style="fill:none;stroke:#000000;stroke-width:1px;stroke-linecap:butt;stroke-linejoin:miter;stroke-opacity:1"
       d="m 237,306.3622 20,0 0,-10 5,0 0,20 -5,0 0,-10 0,0"
       id="path5567-781-0-6-9"
       inkscape:connector-curvature="0" />
    <path
       style="fill:none;stroke:#000000;stroke-width:1px;stroke-linecap:butt;stroke-linejoin:miter;stroke-opacity:1"
       d="m 262,306.3622 20,0 0,-10 5,0 0,20 -5,0 0,-10 0,0"
       id="path5567-60-7-4-2"
       inkscape:connector-curvature="0" />
    <path
       style="fill:none;stroke:#000000;stroke-width:1px;stroke-linecap:butt;stroke-linejoin:miter;stroke-opacity:1"
       d="m 287,306.3622 20,0 0,-10 5,0 0,20 -5,0 0,-10 0,0"
       id="path5567-95-6-0-5"
       inkscape:connector-curvature="0" />
    <path
       style="fill:none;stroke:#000000;stroke-width:1px;stroke-linecap:butt;stroke-linejoin:miter;stroke-opacity:1"
       d="m 312,306.3622 20,0 0,-10 5,0 0,20 -5,0 0,-10 0,0"
       id="path5567-8-3-6-5"
       inkscape:connector-curvature="0" />
    <path
       style="fill:none;stroke:#000000;stroke-width:1px;stroke-linecap:butt;stroke-linejoin:miter;stroke-opacity:1"
       d="m 337,306.3622 20,0 0,-10 5,0 0,20 -5,0 0,-10 0,0"
       id="path5567-90-6-1-3"
       inkscape:connector-curvature="0" />
    <path
       style="fill:none;stroke:#000000;stroke-width:1px;stroke-linecap:butt;stroke-linejoin:miter;stroke-opacity:1"
       d="m 362,306.3622 20,0 0,-10 5,0 0,20 -5,0 0,-10 0,0"
       id="path5567-00-1-8-3"
       inkscape:connector-curvature="0" />
    <path
       style="fill:none;stroke:#000000;stroke-width:1px;stroke-linecap:butt;stroke-linejoin:miter;stroke-opacity:1"
       d="m 105,82.362183 0,5 615,0 0,-5"
       id="path6206"
       inkscape:connector-curvature="0" />
    <path
       style="fill:#000000;stroke:#000000;stroke-width:1px;stroke-linecap:butt;stroke-linejoin:miter;stroke-opacity:1;fill-opacity:1"
       d="m 315,87.362183 0,29.999997 -5,-5 10,0 -5,5"
       id="path6208"
       inkscape:connector-curvature="0" />
    <path
       style="fill:none;stroke:#000000;stroke-width:1px;stroke-linecap:butt;stroke-linejoin:miter;stroke-opacity:1"
       d="m 275,232.36218 0,10 415,0 0,-10"
       id="path6212"
       inkscape:connector-curvature="0" />
    <path
       style="fill:#000000;stroke:#000000;stroke-width:1px;stroke-linecap:butt;stroke-linejoin:miter;stroke-opacity:1;fill-opacity:1"
       d="m 485,242.36218 0,50 -5,-5 10,0 -5,5"
       id="path6214"
       inkscape:connector-curvature="0" />
    <path
       style="fill:none;stroke:#000000;stroke-width:1px;stroke-linecap:butt;stroke-linejoin:miter;stroke-opacity:1"
       d="m 500,217.36218 0,-5 190,0 0,5"
       id="path6216"
       inkscape:connector-curvature="0" />
    <text
       xml:space="preserve"
       style="font-size:10.415452px;font-style:normal;font-weight:normal;line-height:125%;letter-spacing:0px;word-spacing:0px;fill:#000000;fill-opacity:1;stroke:none;font-family:Sans"
       x="489.78616"
       y="237.08882"
       id="text6218"
       sodipodi:linespacing="125%"
       transform="scale(1.1433561,0.87461815)"><tspan
         sodipodi:role="line"
         id="tspan6220"
         x="489.78616"
         y="237.08882">Stencil Radius</tspan></text>
  </g>
</svg>
