<?xml version="1.0" encoding="UTF-8" standalone="no"?>
<!-- Created with Inkscape (http://www.inkscape.org/) -->

<svg
   xmlns:osb="http://www.openswatchbook.org/uri/2009/osb"
   xmlns:dc="http://purl.org/dc/elements/1.1/"
   xmlns:cc="http://creativecommons.org/ns#"
   xmlns:rdf="http://www.w3.org/1999/02/22-rdf-syntax-ns#"
   xmlns:svg="http://www.w3.org/2000/svg"
   xmlns="http://www.w3.org/2000/svg"
   xmlns:xlink="http://www.w3.org/1999/xlink"
   xmlns:sodipodi="http://sodipodi.sourceforge.net/DTD/sodipodi-0.dtd"
   xmlns:inkscape="http://www.inkscape.org/namespaces/inkscape"
   width="744.09448819"
   height="1052.3622047"
   id="svg2"
   version="1.1"
   inkscape:version="0.48.2 r9819"
   sodipodi:docname="Grids.svg">
  <defs
     id="defs4">
    <linearGradient
       inkscape:collect="always"
       id="linearGradient5373">
      <stop
         style="stop-color:#e70000;stop-opacity:1;"
         offset="0"
         id="stop5375" />
      <stop
         style="stop-color:#e70000;stop-opacity:0;"
         offset="1"
         id="stop5377" />
    </linearGradient>
    <linearGradient
       id="linearGradient5321"
       osb:paint="solid">
      <stop
         style="stop-color:#000000;stop-opacity:1;"
         offset="0"
         id="stop5323" />
    </linearGradient>
    <radialGradient
       inkscape:collect="always"
       xlink:href="#linearGradient5373"
       id="radialGradient5381"
       cx="220"
       cy="919.86218"
       fx="220"
       fy="919.86218"
       r="10"
       gradientTransform="matrix(1,0,0,0.75,0,229.96555)"
       gradientUnits="userSpaceOnUse" />
  </defs>
  <sodipodi:namedview
     id="base"
     pagecolor="#ffffff"
     bordercolor="#666666"
     borderopacity="1.0"
     inkscape:pageopacity="0.0"
     inkscape:pageshadow="2"
     inkscape:zoom="2.149792"
     inkscape:cx="297.43484"
     inkscape:cy="250"
     inkscape:document-units="px"
     inkscape:current-layer="layer1"
     showgrid="true"
     inkscape:window-width="1680"
     inkscape:window-height="988"
     inkscape:window-x="-8"
     inkscape:window-y="-8"
     inkscape:window-maximized="1">
    <inkscape:grid
       type="xygrid"
       id="grid2985" />
  </sodipodi:namedview>
  <metadata
     id="metadata7">
    <rdf:RDF>
      <cc:Work
         rdf:about="">
        <dc:format>image/svg+xml</dc:format>
        <dc:type
           rdf:resource="http://purl.org/dc/dcmitype/StillImage" />
        <dc:title></dc:title>
      </cc:Work>
    </rdf:RDF>
  </metadata>
  <g
     inkscape:label="Layer 1"
     inkscape:groupmode="layer"
     id="layer1">
    <path
       style="fill:none;stroke:#000000;stroke-width:1px;stroke-linecap:butt;stroke-linejoin:miter;stroke-opacity:1"
       d="m 35,952.36218 20,0 0,-10 5,0 0,20 -5,0 0,-10 0,0"
       id="path5567"
       inkscape:connector-curvature="0" />
    <path
       style="fill:none;stroke:#000000;stroke-width:1px;stroke-linecap:butt;stroke-linejoin:miter;stroke-opacity:1"
       d="m 60,952.36218 20,0 0,-10 5,0 0,20 -5,0 0,-10 0,0"
       id="path5567-0"
       inkscape:connector-curvature="0" />
    <path
       style="fill:none;stroke:#000000;stroke-width:1px;stroke-linecap:butt;stroke-linejoin:miter;stroke-opacity:1"
       d="m 85,952.36218 20,0 0,-10 5,0 0,20 -5,0 0,-10 0,0"
       id="path5567-2"
       inkscape:connector-curvature="0" />
    <path
       style="fill:none;stroke:#000000;stroke-width:1px;stroke-linecap:butt;stroke-linejoin:miter;stroke-opacity:1"
       d="m 110,952.36218 20,0 0,-10 5,0 0,20 -5,0 0,-10 0,0"
       id="path5567-08"
       inkscape:connector-curvature="0" />
    <path
       style="fill:none;stroke:#000000;stroke-width:1px;stroke-linecap:butt;stroke-linejoin:miter;stroke-opacity:1"
       d="m 135,952.36218 20,0 0,-10 5,0 0,20 -5,0 0,-10 0,0"
       id="path5567-9"
       inkscape:connector-curvature="0" />
    <path
       style="fill:none;stroke:#000000;stroke-width:1px;stroke-linecap:butt;stroke-linejoin:miter;stroke-opacity:1"
       d="m 160,952.36218 20,0 0,-10 5,0 0,20 -5,0 0,-10 0,0"
       id="path5567-28"
       inkscape:connector-curvature="0" />
    <path
       style="fill:none;stroke:#000000;stroke-width:1px;stroke-linecap:butt;stroke-linejoin:miter;stroke-opacity:1"
       d="m 185,952.36218 20,0 0,-10 5,0 0,20 -5,0 0,-10 0,0"
       id="path5567-20"
       inkscape:connector-curvature="0" />
    <path
       style="fill:#0000ff;stroke:#000000;stroke-width:1px;stroke-linecap:butt;stroke-linejoin:miter;stroke-opacity:1;fill-opacity:1"
       d="m 210,952.36218 20,0 0,-10 5,0 0,20 -5,0 0,-10 0,0"
       id="path5567-5"
       inkscape:connector-curvature="0" />
    <path
       style="fill:none;stroke:#000000;stroke-width:1px;stroke-linecap:butt;stroke-linejoin:miter;stroke-opacity:1"
       d="m 235,952.36218 20,0 0,-10 5,0 0,20 -5,0 0,-10 0,0"
       id="path5567-52"
       inkscape:connector-curvature="0" />
    <path
       style="fill:none;stroke:#000000;stroke-width:1px;stroke-linecap:butt;stroke-linejoin:miter;stroke-opacity:1"
       d="m 260,952.36218 20,0 0,-10 5,0 0,20 -5,0 0,-10 0,0"
       id="path5567-7"
       inkscape:connector-curvature="0" />
    <path
       style="fill:none;stroke:#000000;stroke-width:1px;stroke-linecap:butt;stroke-linejoin:miter;stroke-opacity:1"
       d="m 285,952.36218 20,0 0,-10 5,0 0,20 -5,0 0,-10 0,0"
       id="path5567-6"
       inkscape:connector-curvature="0" />
    <path
       style="fill:none;stroke:#000000;stroke-width:1px;stroke-linecap:butt;stroke-linejoin:miter;stroke-opacity:1"
       d="m 310,952.36218 20,0 0,-10 5,0 0,20 -5,0 0,-10 0,0"
       id="path5567-78"
       inkscape:connector-curvature="0" />
    <path
       style="fill:none;stroke:#000000;stroke-width:1px;stroke-linecap:butt;stroke-linejoin:miter;stroke-opacity:1"
       d="m 335,952.36218 20,0 0,-10 5,0 0,20 -5,0 0,-10 0,0"
       id="path5567-781"
       inkscape:connector-curvature="0" />
    <path
       style="fill:none;stroke:#000000;stroke-width:1px;stroke-linecap:butt;stroke-linejoin:miter;stroke-opacity:1"
       d="m 360,952.36218 20,0 0,-10 5,0 0,20 -5,0 0,-10 0,0"
       id="path5567-60"
       inkscape:connector-curvature="0" />
    <path
       style="fill:none;stroke:#000000;stroke-width:1px;stroke-linecap:butt;stroke-linejoin:miter;stroke-opacity:1"
       d="m 385,952.36218 20,0 0,-10 5,0 0,20 -5,0 0,-10 0,0"
       id="path5567-95"
       inkscape:connector-curvature="0" />
    <path
       style="fill:none;fill-opacity:1;stroke:#000000;stroke-width:1px;stroke-linecap:butt;stroke-linejoin:miter;stroke-opacity:1"
       d="m 410,952.36218 20,0 0,-10 5,0 0,20 -5,0 0,-10 0,0"
       id="path5567-8"
       inkscape:connector-curvature="0" />
    <path
       style="fill:none;stroke:#000000;stroke-width:1px;stroke-linecap:butt;stroke-linejoin:miter;stroke-opacity:1"
       d="m 435,952.36218 20,0 0,-10 5,0 0,20 -5,0 0,-10 0,0"
       id="path5567-90"
       inkscape:connector-curvature="0" />
    <path
       style="fill:none;stroke:#000000;stroke-width:1px;stroke-linecap:butt;stroke-linejoin:miter;stroke-opacity:1"
       d="m 460,952.36218 20,0 0,-10 5,0 0,20 -5,0 0,-10 0,0"
       id="path5567-00"
       inkscape:connector-curvature="0" />
    <path
       style="fill:none;stroke:#000000;stroke-width:1px;stroke-linecap:butt;stroke-linejoin:miter;stroke-opacity:1"
       d="m 485,952.36218 20,0 0,-10 5,0 0,20 -5,0 0,-10 0,0"
       id="path5567-72"
       inkscape:connector-curvature="0" />
    <path
       style="fill:none;stroke:#000000;stroke-width:1px;stroke-linecap:butt;stroke-linejoin:miter;stroke-opacity:1"
       d="m 510,952.36218 20,0 0,-10 5,0 0,20 -5,0 0,-10 0,0"
       id="path5567-55"
       inkscape:connector-curvature="0" />
    <path
       style="fill:none;stroke:#000000;stroke-width:1px;stroke-linecap:butt;stroke-linejoin:miter;stroke-opacity:1"
       d="m 535,952.36218 20,0 0,-10 5,0 0,20 -5,0 0,-10 0,0"
       id="path5567-21"
       inkscape:connector-curvature="0" />
    <path
       style="fill:none;stroke:#000000;stroke-width:1px;stroke-linecap:butt;stroke-linejoin:miter;stroke-opacity:1"
       d="m 560,952.36218 20,0 0,-10 5,0 0,20 -5,0 0,-10 0,0"
       id="path5567-4"
       inkscape:connector-curvature="0" />
    <path
       style="fill:none;stroke:#000000;stroke-width:1px;stroke-linecap:butt;stroke-linejoin:miter;stroke-opacity:1"
       d="m 585,952.36218 20,0 0,-10 5,0 0,20 -5,0 0,-10 0,0"
       id="path5567-86"
       inkscape:connector-curvature="0" />
    <path
       style="fill:none;stroke:#000000;stroke-width:1px;stroke-linecap:butt;stroke-linejoin:miter;stroke-opacity:1"
       d="m 610,952.36218 20,0 0,-10 5,0 0,20 -5,0 0,-10 0,0"
       id="path5567-46"
       inkscape:connector-curvature="0" />
    <path
       style="fill:none;stroke:#000000;stroke-width:1px;stroke-linecap:butt;stroke-linejoin:miter;stroke-opacity:1"
       d="m 635,952.36218 20,0 0,-10 5,0 0,20 -5,0 0,-10 0,0"
       id="path5567-89"
       inkscape:connector-curvature="0" />
    <path
       style="fill:none;stroke:#000000;stroke-width:1px;stroke-linecap:butt;stroke-linejoin:miter;stroke-opacity:1"
       d="m 660,952.36218 20,0 0,-10 5,0 0,20 -5,0 0,-10 0,0"
       id="path5567-83"
       inkscape:connector-curvature="0" />
    <path
       style="fill:none;stroke:#000000;stroke-width:1px;stroke-linecap:butt;stroke-linejoin:miter;stroke-opacity:1"
       d="m 685,952.36218 20,0 0,-10 5,0 0,20 -5,0 0,-10 0,0"
       id="path5567-551"
       inkscape:connector-curvature="0" />
    <path
       style="fill:none;stroke:#000000;stroke-width:1px;stroke-linecap:butt;stroke-linejoin:miter;stroke-opacity:1"
       d="m 710,952.36218 20,0 0,0"
       id="path5769"
       inkscape:connector-curvature="0" />
    <path
       style="fill:#0000ff;stroke:#000000;stroke-width:1px;stroke-linecap:butt;stroke-linejoin:miter;stroke-opacity:1;fill-opacity:1"
       d="m 35,852.36218 20,0 0,-10 5,0 0,20 -5,0 0,-10 0,0"
       id="path5567-73"
       inkscape:connector-curvature="0" />
    <path
       style="fill:#0000ff;fill-opacity:1;stroke:#000000;stroke-width:1px;stroke-linecap:butt;stroke-linejoin:miter;stroke-opacity:1"
       d="m 60,852.36218 20,0 0,-10 5,0 0,20 -5,0 0,-10 0,0"
       id="path5567-0-4"
       inkscape:connector-curvature="0" />
    <path
       style="fill:#0000ff;stroke:#000000;stroke-width:1px;stroke-linecap:butt;stroke-linejoin:miter;stroke-opacity:1;fill-opacity:1"
       d="m 85,852.36218 20,0 0,-10 5,0 0,20 -5,0 0,-10 0,0"
       id="path5567-2-0"
       inkscape:connector-curvature="0" />
    <path
       style="fill:#0000ff;fill-opacity:1;stroke:#000000;stroke-width:1px;stroke-linecap:butt;stroke-linejoin:miter;stroke-opacity:1"
       d="m 110,852.36218 20,0 0,-10 5,0 0,20 -5,0 0,-10 0,0"
       id="path5567-08-8"
       inkscape:connector-curvature="0" />
    <path
       style="fill:#0000ff;stroke:#000000;stroke-width:1px;stroke-linecap:butt;stroke-linejoin:miter;stroke-opacity:1;fill-opacity:1"
       d="m 135,852.36218 20,0 0,-10 5,0 0,20 -5,0 0,-10 0,0"
       id="path5567-9-8"
       inkscape:connector-curvature="0" />
    <path
       style="fill:#0000ff;fill-opacity:1;stroke:#000000;stroke-width:1px;stroke-linecap:butt;stroke-linejoin:miter;stroke-opacity:1"
       d="m 160,852.36218 20,0 0,-10 5,0 0,20 -5,0 0,-10 0,0"
       id="path5567-28-1"
       inkscape:connector-curvature="0" />
    <path
       style="fill:#0000ff;stroke:#000000;stroke-width:1px;stroke-linecap:butt;stroke-linejoin:miter;stroke-opacity:1;fill-opacity:1"
       d="m 185,852.36218 20,0 0,-10 5,0 0,20 -5,0 0,-10 0,0"
       id="path5567-20-5"
       inkscape:connector-curvature="0" />
    <path
       style="fill:#0000ff;fill-opacity:1;stroke:#000000;stroke-width:1px;stroke-linecap:butt;stroke-linejoin:miter;stroke-opacity:1"
       d="m 210,852.36218 20,0 0,-10 5,0 0,20 -5,0 0,-10 0,0"
       id="path5567-5-2"
       inkscape:connector-curvature="0" />
    <path
       style="fill:#0000ff;stroke:#000000;stroke-width:1px;stroke-linecap:butt;stroke-linejoin:miter;stroke-opacity:1;fill-opacity:1"
       d="m 235,852.36218 20,0 0,-10 5,0 0,20 -5,0 0,-10 0,0"
       id="path5567-52-3"
       inkscape:connector-curvature="0" />
    <path
       style="fill:#0000ff;fill-opacity:1;stroke:#000000;stroke-width:1px;stroke-linecap:butt;stroke-linejoin:miter;stroke-opacity:1"
       d="m 260,852.36218 20,0 0,-10 5,0 0,20 -5,0 0,-10 0,0"
       id="path5567-7-2"
       inkscape:connector-curvature="0" />
    <path
       style="fill:#0000ff;stroke:#000000;stroke-width:1px;stroke-linecap:butt;stroke-linejoin:miter;stroke-opacity:1;fill-opacity:1"
       d="m 285,852.36218 20,0 0,-10 5,0 0,20 -5,0 0,-10 0,0"
       id="path5567-6-4"
       inkscape:connector-curvature="0" />
    <path
       style="fill:#0000ff;fill-opacity:1;stroke:#000000;stroke-width:1px;stroke-linecap:butt;stroke-linejoin:miter;stroke-opacity:1"
       d="m 310,852.36218 20,0 0,-10 5,0 0,20 -5,0 0,-10 0,0"
       id="path5567-78-6"
       inkscape:connector-curvature="0" />
    <path
       style="fill:#0000ff;stroke:#000000;stroke-width:1px;stroke-linecap:butt;stroke-linejoin:miter;stroke-opacity:1;fill-opacity:1"
       d="m 335,852.36218 20,0 0,-10 5,0 0,20 -5,0 0,-10 0,0"
       id="path5567-781-6"
       inkscape:connector-curvature="0" />
    <path
       style="fill:#0000ff;fill-opacity:1;stroke:#000000;stroke-width:1px;stroke-linecap:butt;stroke-linejoin:miter;stroke-opacity:1"
       d="m 360,852.36218 20,0 0,-10 5,0 0,20 -5,0 0,-10 0,0"
       id="path5567-60-6"
       inkscape:connector-curvature="0" />
    <path
       style="fill:#0000ff;stroke:#000000;stroke-width:1px;stroke-linecap:butt;stroke-linejoin:miter;stroke-opacity:1;fill-opacity:1"
       d="m 385,852.36218 20,0 0,-10 5,0 0,20 -5,0 0,-10 0,0"
       id="path5567-95-2"
       inkscape:connector-curvature="0" />
    <path
       style="fill:#0000ff;fill-opacity:1;stroke:#000000;stroke-width:1px;stroke-linecap:butt;stroke-linejoin:miter;stroke-opacity:1"
       d="m 410,852.36218 20,0 0,-10 5,0 0,20 -5,0 0,-10 0,0"
       id="path5567-8-9"
       inkscape:connector-curvature="0" />
    <path
       style="fill:#0000ff;stroke:#000000;stroke-width:1px;stroke-linecap:butt;stroke-linejoin:miter;stroke-opacity:1;fill-opacity:1"
       d="m 435,852.36218 20,0 0,-10 5,0 0,20 -5,0 0,-10 0,0"
       id="path5567-90-0"
       inkscape:connector-curvature="0" />
    <path
       style="fill:#0000ff;stroke:#000000;stroke-width:1px;stroke-linecap:butt;stroke-linejoin:miter;stroke-opacity:1;fill-opacity:1"
       d="m 460,852.36218 20,0 0,-10 5,0 0,20 -5,0 0,-10 0,0"
       id="path5567-00-4"
       inkscape:connector-curvature="0" />
    <path
       style="fill:#0000ff;stroke:#000000;stroke-width:1px;stroke-linecap:butt;stroke-linejoin:miter;stroke-opacity:1;fill-opacity:1"
       d="m 485,852.36218 20,0 0,-10 5,0 0,20 -5,0 0,-10 0,0"
       id="path5567-72-9"
       inkscape:connector-curvature="0" />
    <path
       style="fill:#0000ff;stroke:#000000;stroke-width:1px;stroke-linecap:butt;stroke-linejoin:miter;stroke-opacity:1;fill-opacity:1"
       d="m 510,852.36218 20,0 0,-10 5,0 0,20 -5,0 0,-10 0,0"
       id="path5567-55-3"
       inkscape:connector-curvature="0" />
    <path
       style="fill:#0000ff;stroke:#000000;stroke-width:1px;stroke-linecap:butt;stroke-linejoin:miter;stroke-opacity:1;fill-opacity:1"
       d="m 535,852.36218 20,0 0,-10 5,0 0,20 -5,0 0,-10 0,0"
       id="path5567-21-1"
       inkscape:connector-curvature="0" />
    <path
       style="fill:#0000ff;stroke:#000000;stroke-width:1px;stroke-linecap:butt;stroke-linejoin:miter;stroke-opacity:1;fill-opacity:1"
       d="m 560,852.36218 20,0 0,-10 5,0 0,20 -5,0 0,-10 0,0"
       id="path5567-4-1"
       inkscape:connector-curvature="0" />
    <path
       style="fill:#0000ff;stroke:#000000;stroke-width:1px;stroke-linecap:butt;stroke-linejoin:miter;stroke-opacity:1;fill-opacity:1"
       d="m 585,852.36218 20,0 0,-10 5,0 0,20 -5,0 0,-10 0,0"
       id="path5567-86-9"
       inkscape:connector-curvature="0" />
    <path
       style="fill:#0000ff;stroke:#000000;stroke-width:1px;stroke-linecap:butt;stroke-linejoin:miter;stroke-opacity:1;fill-opacity:1"
       d="m 610,852.36218 20,0 0,-10 5,0 0,20 -5,0 0,-10 0,0"
       id="path5567-46-9"
       inkscape:connector-curvature="0" />
    <path
       style="fill:#0000ff;stroke:#000000;stroke-width:1px;stroke-linecap:butt;stroke-linejoin:miter;stroke-opacity:1;fill-opacity:1"
       d="m 635,852.36218 20,0 0,-10 5,0 0,20 -5,0 0,-10 0,0"
       id="path5567-89-5"
       inkscape:connector-curvature="0" />
    <path
       style="fill:#0000ff;stroke:#000000;stroke-width:1px;stroke-linecap:butt;stroke-linejoin:miter;stroke-opacity:1;fill-opacity:1"
       d="m 660,852.36218 20,0 0,-10 5,0 0,20 -5,0 0,-10 0,0"
       id="path5567-83-5"
       inkscape:connector-curvature="0" />
    <path
       style="fill:#0000ff;stroke:#000000;stroke-width:1px;stroke-linecap:butt;stroke-linejoin:miter;stroke-opacity:1;fill-opacity:1"
       d="m 685,852.36218 20,0 0,-10 5,0 0,20 -5,0 0,-10 0,0"
       id="path5567-551-5"
       inkscape:connector-curvature="0" />
    <path
       style="fill:#0000ff;stroke:#000000;stroke-width:1px;stroke-linecap:butt;stroke-linejoin:miter;stroke-opacity:1;fill-opacity:1"
       d="m 710,852.36218 20,0 0,0"
       id="path5769-0"
       inkscape:connector-curvature="0" />
    <path
       style="fill:none;stroke:#000000;stroke-width:1px;stroke-linecap:butt;stroke-linejoin:miter;stroke-opacity:1"
       d="m 35,752.36218 20,0 0,-10 5,0 0,20 -5,0 0,-10 0,0"
       id="path5567-77"
       inkscape:connector-curvature="0" />
    <path
       style="fill:none;stroke:#000000;stroke-width:1px;stroke-linecap:butt;stroke-linejoin:miter;stroke-opacity:1"
       d="m 60,752.36218 20,0 0,-10 5,0 0,20 -5,0 0,-10 0,0"
       id="path5567-0-9"
       inkscape:connector-curvature="0" />
    <path
       style="fill:#ff0000;stroke:#000000;stroke-width:1px;stroke-linecap:butt;stroke-linejoin:miter;stroke-opacity:1;fill-opacity:1"
       d="m 85,752.36218 20,0 0,-10 5,0 0,20 -5,0 0,-10 0,0"
       id="path5567-2-5"
       inkscape:connector-curvature="0" />
    <path
       style="fill:none;fill-opacity:1;stroke:#000000;stroke-width:1px;stroke-linecap:butt;stroke-linejoin:miter;stroke-opacity:1"
       d="m 110,752.36218 20,0 0,-10 5,0 0,20 -5,0 0,-10 0,0"
       id="path5567-08-5"
       inkscape:connector-curvature="0" />
    <path
       style="fill:none;stroke:#000000;stroke-width:1px;stroke-linecap:butt;stroke-linejoin:miter;stroke-opacity:1"
       d="m 135,752.36218 20,0 0,-10 5,0 0,20 -5,0 0,-10 0,0"
       id="path5567-9-4"
       inkscape:connector-curvature="0" />
    <path
       style="fill:none;stroke:#000000;stroke-width:1px;stroke-linecap:butt;stroke-linejoin:miter;stroke-opacity:1"
       d="m 160,752.36218 20,0 0,-10 5,0 0,20 -5,0 0,-10 0,0"
       id="path5567-28-0"
       inkscape:connector-curvature="0" />
    <path
       style="fill:none;stroke:#000000;stroke-width:1px;stroke-linecap:butt;stroke-linejoin:miter;stroke-opacity:1"
       d="m 185,752.36218 20,0 0,-10 5,0 0,20 -5,0 0,-10 0,0"
       id="path5567-20-3"
       inkscape:connector-curvature="0" />
    <path
       style="fill:none;fill-opacity:1;stroke:#000000;stroke-width:1px;stroke-linecap:butt;stroke-linejoin:miter;stroke-opacity:1"
       d="m 210,752.36218 20,0 0,-10 5,0 0,20 -5,0 0,-10 0,0"
       id="path5567-5-4"
       inkscape:connector-curvature="0" />
    <path
       style="fill:none;stroke:#000000;stroke-width:1px;stroke-linecap:butt;stroke-linejoin:miter;stroke-opacity:1"
       d="m 235,752.36218 20,0 0,-10 5,0 0,20 -5,0 0,-10 0,0"
       id="path5567-52-1"
       inkscape:connector-curvature="0" />
    <path
       style="fill:none;stroke:#000000;stroke-width:1px;stroke-linecap:butt;stroke-linejoin:miter;stroke-opacity:1"
       d="m 260,752.36218 20,0 0,-10 5,0 0,20 -5,0 0,-10 0,0"
       id="path5567-7-22"
       inkscape:connector-curvature="0" />
    <path
       style="fill:none;stroke:#000000;stroke-width:1px;stroke-linecap:butt;stroke-linejoin:miter;stroke-opacity:1"
       d="m 285,752.36218 20,0 0,-10 5,0 0,20 -5,0 0,-10 0,0"
       id="path5567-6-9"
       inkscape:connector-curvature="0" />
    <path
       style="fill:none;fill-opacity:1;stroke:#000000;stroke-width:1px;stroke-linecap:butt;stroke-linejoin:miter;stroke-opacity:1"
       d="m 310,752.36218 20,0 0,-10 5,0 0,20 -5,0 0,-10 0,0"
       id="path5567-78-8"
       inkscape:connector-curvature="0" />
    <path
       style="fill:none;stroke:#000000;stroke-width:1px;stroke-linecap:butt;stroke-linejoin:miter;stroke-opacity:1"
       d="m 335,752.36218 20,0 0,-10 5,0 0,20 -5,0 0,-10 0,0"
       id="path5567-781-2"
       inkscape:connector-curvature="0" />
    <path
       style="fill:none;stroke:#000000;stroke-width:1px;stroke-linecap:butt;stroke-linejoin:miter;stroke-opacity:1"
       d="m 360,752.36218 20,0 0,-10 5,0 0,20 -5,0 0,-10 0,0"
       id="path5567-60-2"
       inkscape:connector-curvature="0" />
    <path
       style="fill:none;stroke:#000000;stroke-width:1px;stroke-linecap:butt;stroke-linejoin:miter;stroke-opacity:1"
       d="m 385,752.36218 20,0 0,-10 5,0 0,20 -5,0 0,-10 0,0"
       id="path5567-95-7"
       inkscape:connector-curvature="0" />
    <path
       style="fill:none;fill-opacity:1;stroke:#000000;stroke-width:1px;stroke-linecap:butt;stroke-linejoin:miter;stroke-opacity:1"
       d="m 410,752.36218 20,0 0,-10 5,0 0,20 -5,0 0,-10 0,0"
       id="path5567-8-8"
       inkscape:connector-curvature="0" />
    <path
       style="fill:none;stroke:#000000;stroke-width:1px;stroke-linecap:butt;stroke-linejoin:miter;stroke-opacity:1"
       d="m 435,752.36218 20,0 0,-10 5,0 0,20 -5,0 0,-10 0,0"
       id="path5567-90-5"
       inkscape:connector-curvature="0" />
    <path
       style="fill:none;stroke:#000000;stroke-width:1px;stroke-linecap:butt;stroke-linejoin:miter;stroke-opacity:1"
       d="m 460,752.36218 20,0 0,-10 5,0 0,20 -5,0 0,-10 0,0"
       id="path5567-00-8"
       inkscape:connector-curvature="0" />
    <path
       style="fill:none;stroke:#000000;stroke-width:1px;stroke-linecap:butt;stroke-linejoin:miter;stroke-opacity:1"
       d="m 485,752.36218 20,0 0,-10 5,0 0,20 -5,0 0,-10 0,0"
       id="path5567-72-3"
       inkscape:connector-curvature="0" />
    <path
       style="fill:none;stroke:#000000;stroke-width:1px;stroke-linecap:butt;stroke-linejoin:miter;stroke-opacity:1;fill-opacity:1"
       d="m 510,752.36218 20,0 0,-10 5,0 0,20 -5,0 0,-10 0,0"
       id="path5567-55-9"
       inkscape:connector-curvature="0" />
    <path
       style="fill:none;stroke:#000000;stroke-width:1px;stroke-linecap:butt;stroke-linejoin:miter;stroke-opacity:1"
       d="m 535,752.36218 20,0 0,-10 5,0 0,20 -5,0 0,-10 0,0"
       id="path5567-21-4"
       inkscape:connector-curvature="0" />
    <path
       style="fill:none;stroke:#000000;stroke-width:1px;stroke-linecap:butt;stroke-linejoin:miter;stroke-opacity:1"
       d="m 560,752.36218 20,0 0,-10 5,0 0,20 -5,0 0,-10 0,0"
       id="path5567-4-4"
       inkscape:connector-curvature="0" />
    <path
       style="fill:none;stroke:#000000;stroke-width:1px;stroke-linecap:butt;stroke-linejoin:miter;stroke-opacity:1"
       d="m 585,752.36218 20,0 0,-10 5,0 0,20 -5,0 0,-10 0,0"
       id="path5567-86-6"
       inkscape:connector-curvature="0" />
    <path
       style="fill:none;stroke:#000000;stroke-width:1px;stroke-linecap:butt;stroke-linejoin:miter;stroke-opacity:1;fill-opacity:1"
       d="m 610,752.36218 20,0 0,-10 5,0 0,20 -5,0 0,-10 0,0"
       id="path5567-46-98"
       inkscape:connector-curvature="0" />
    <path
       style="fill:none;stroke:#000000;stroke-width:1px;stroke-linecap:butt;stroke-linejoin:miter;stroke-opacity:1"
       d="m 635,752.36218 20,0 0,-10 5,0 0,20 -5,0 0,-10 0,0"
       id="path5567-89-56"
       inkscape:connector-curvature="0" />
    <path
       style="fill:none;stroke:#000000;stroke-width:1px;stroke-linecap:butt;stroke-linejoin:miter;stroke-opacity:1"
       d="m 660,752.36218 20,0 0,-10 5,0 0,20 -5,0 0,-10 0,0"
       id="path5567-83-6"
       inkscape:connector-curvature="0" />
    <path
       style="fill:none;stroke:#000000;stroke-width:1px;stroke-linecap:butt;stroke-linejoin:miter;stroke-opacity:1"
       d="m 685,752.36218 20,0 0,-10 5,0 0,20 -5,0 0,-10 0,0"
       id="path5567-551-0"
       inkscape:connector-curvature="0" />
    <path
       style="fill:none;stroke:#000000;stroke-width:1px;stroke-linecap:butt;stroke-linejoin:miter;stroke-opacity:1"
       d="m 710,752.36218 20,0 0,0"
       id="path5769-2"
       inkscape:connector-curvature="0" />
    <path
       style="fill:#ff0000;stroke:#000000;stroke-width:1px;stroke-linecap:butt;stroke-linejoin:miter;stroke-opacity:1;fill-opacity:1"
       d="m 35,652.36218 20,0 0,-10 5,0 0,20 -5,0 0,-10 0,0"
       id="path5567-723"
       inkscape:connector-curvature="0" />
    <path
       style="fill:#ff0000;stroke:#000000;stroke-width:1px;stroke-linecap:butt;stroke-linejoin:miter;stroke-opacity:1;fill-opacity:1"
       d="m 60,652.36218 20,0 0,-10 5,0 0,20 -5,0 0,-10 0,0"
       id="path5567-0-7"
       inkscape:connector-curvature="0" />
    <path
       style="fill:#ff0000;stroke:#000000;stroke-width:1px;stroke-linecap:butt;stroke-linejoin:miter;stroke-opacity:1;fill-opacity:1"
       d="m 85,652.36218 20,0 0,-10 5,0 0,20 -5,0 0,-10 0,0"
       id="path5567-2-8"
       inkscape:connector-curvature="0" />
    <path
       style="fill:#ff0000;stroke:#000000;stroke-width:1px;stroke-linecap:butt;stroke-linejoin:miter;stroke-opacity:1;fill-opacity:1"
       d="m 110,652.36218 20,0 0,-10 5,0 0,20 -5,0 0,-10 0,0"
       id="path5567-08-58"
       inkscape:connector-curvature="0" />
    <path
       style="fill:#ff0000;stroke:#000000;stroke-width:1px;stroke-linecap:butt;stroke-linejoin:miter;stroke-opacity:1;fill-opacity:1"
       d="m 135,652.36218 20,0 0,-10 5,0 0,20 -5,0 0,-10 0,0"
       id="path5567-9-5"
       inkscape:connector-curvature="0" />
    <path
       style="fill:none;stroke:#000000;stroke-width:1px;stroke-linecap:butt;stroke-linejoin:miter;stroke-opacity:1"
       d="m 160,652.36218 20,0 0,-10 5,0 0,20 -5,0 0,-10 0,0"
       id="path5567-28-8"
       inkscape:connector-curvature="0" />
    <path
       style="fill:none;stroke:#000000;stroke-width:1px;stroke-linecap:butt;stroke-linejoin:miter;stroke-opacity:1"
       d="m 185,652.36218 20,0 0,-10 5,0 0,20 -5,0 0,-10 0,0"
       id="path5567-20-7"
       inkscape:connector-curvature="0" />
    <path
       style="fill:none;stroke:#000000;stroke-width:1px;stroke-linecap:butt;stroke-linejoin:miter;stroke-opacity:1;fill-opacity:1"
       d="m 210,652.36218 20,0 0,-10 5,0 0,20 -5,0 0,-10 0,0"
       id="path5567-5-3"
       inkscape:connector-curvature="0" />
    <path
       style="fill:none;stroke:#000000;stroke-width:1px;stroke-linecap:butt;stroke-linejoin:miter;stroke-opacity:1"
       d="m 235,652.36218 20,0 0,-10 5,0 0,20 -5,0 0,-10 0,0"
       id="path5567-52-31"
       inkscape:connector-curvature="0" />
    <path
       style="fill:none;stroke:#000000;stroke-width:1px;stroke-linecap:butt;stroke-linejoin:miter;stroke-opacity:1"
       d="m 260,652.36218 20,0 0,-10 5,0 0,20 -5,0 0,-10 0,0"
       id="path5567-7-0"
       inkscape:connector-curvature="0" />
    <path
       style="fill:none;stroke:#000000;stroke-width:1px;stroke-linecap:butt;stroke-linejoin:miter;stroke-opacity:1"
       d="m 285,652.36218 20,0 0,-10 5,0 0,20 -5,0 0,-10 0,0"
       id="path5567-6-8"
       inkscape:connector-curvature="0" />
    <path
       style="fill:none;stroke:#000000;stroke-width:1px;stroke-linecap:butt;stroke-linejoin:miter;stroke-opacity:1"
       d="m 310,652.36218 20,0 0,-10 5,0 0,20 -5,0 0,-10 0,0"
       id="path5567-78-1"
       inkscape:connector-curvature="0" />
    <path
       style="fill:none;stroke:#000000;stroke-width:1px;stroke-linecap:butt;stroke-linejoin:miter;stroke-opacity:1"
       d="m 335,652.36218 20,0 0,-10 5,0 0,20 -5,0 0,-10 0,0"
       id="path5567-781-0"
       inkscape:connector-curvature="0" />
    <path
       style="fill:none;stroke:#000000;stroke-width:1px;stroke-linecap:butt;stroke-linejoin:miter;stroke-opacity:1"
       d="m 360,652.36218 20,0 0,-10 5,0 0,20 -5,0 0,-10 0,0"
       id="path5567-60-9"
       inkscape:connector-curvature="0" />
    <path
       style="fill:none;stroke:#000000;stroke-width:1px;stroke-linecap:butt;stroke-linejoin:miter;stroke-opacity:1"
       d="m 385,652.36218 20,0 0,-10 5,0 0,20 -5,0 0,-10 0,0"
       id="path5567-95-24"
       inkscape:connector-curvature="0" />
    <path
       style="fill:none;fill-opacity:1;stroke:#000000;stroke-width:1px;stroke-linecap:butt;stroke-linejoin:miter;stroke-opacity:1"
       d="m 410,652.36218 20,0 0,-10 5,0 0,20 -5,0 0,-10 0,0"
       id="path5567-8-91"
       inkscape:connector-curvature="0" />
    <path
       style="fill:none;stroke:#000000;stroke-width:1px;stroke-linecap:butt;stroke-linejoin:miter;stroke-opacity:1"
       d="m 435,652.36218 20,0 0,-10 5,0 0,20 -5,0 0,-10 0,0"
       id="path5567-90-57"
       inkscape:connector-curvature="0" />
    <path
       style="fill:none;stroke:#000000;stroke-width:1px;stroke-linecap:butt;stroke-linejoin:miter;stroke-opacity:1"
       d="m 460,652.36218 20,0 0,-10 5,0 0,20 -5,0 0,-10 0,0"
       id="path5567-00-3"
       inkscape:connector-curvature="0" />
    <path
       style="fill:none;stroke:#000000;stroke-width:1px;stroke-linecap:butt;stroke-linejoin:miter;stroke-opacity:1"
       d="m 485,652.36218 20,0 0,-10 5,0 0,20 -5,0 0,-10 0,0"
       id="path5567-72-34"
       inkscape:connector-curvature="0" />
    <path
       style="fill:none;stroke:#000000;stroke-width:1px;stroke-linecap:butt;stroke-linejoin:miter;stroke-opacity:1"
       d="m 510,652.36218 20,0 0,-10 5,0 0,20 -5,0 0,-10 0,0"
       id="path5567-55-2"
       inkscape:connector-curvature="0" />
    <path
       style="fill:none;stroke:#000000;stroke-width:1px;stroke-linecap:butt;stroke-linejoin:miter;stroke-opacity:1"
       d="m 535,652.36218 20,0 0,-10 5,0 0,20 -5,0 0,-10 0,0"
       id="path5567-21-2"
       inkscape:connector-curvature="0" />
    <path
       style="fill:none;stroke:#000000;stroke-width:1px;stroke-linecap:butt;stroke-linejoin:miter;stroke-opacity:1"
       d="m 560,652.36218 20,0 0,-10 5,0 0,20 -5,0 0,-10 0,0"
       id="path5567-4-0"
       inkscape:connector-curvature="0" />
    <path
       style="fill:none;stroke:#000000;stroke-width:1px;stroke-linecap:butt;stroke-linejoin:miter;stroke-opacity:1"
       d="m 585,652.36218 20,0 0,-10 5,0 0,20 -5,0 0,-10 0,0"
       id="path5567-86-1"
       inkscape:connector-curvature="0" />
    <path
       style="fill:none;stroke:#000000;stroke-width:1px;stroke-linecap:butt;stroke-linejoin:miter;stroke-opacity:1;fill-opacity:1"
       d="m 610,652.36218 20,0 0,-10 5,0 0,20 -5,0 0,-10 0,0"
       id="path5567-46-2"
       inkscape:connector-curvature="0" />
    <path
       style="fill:none;stroke:#000000;stroke-width:1px;stroke-linecap:butt;stroke-linejoin:miter;stroke-opacity:1"
       d="m 635,652.36218 20,0 0,-10 5,0 0,20 -5,0 0,-10 0,0"
       id="path5567-89-7"
       inkscape:connector-curvature="0" />
    <path
       style="fill:none;stroke:#000000;stroke-width:1px;stroke-linecap:butt;stroke-linejoin:miter;stroke-opacity:1"
       d="m 660,652.36218 20,0 0,-10 5,0 0,20 -5,0 0,-10 0,0"
       id="path5567-83-7"
       inkscape:connector-curvature="0" />
    <path
       style="fill:none;stroke:#000000;stroke-width:1px;stroke-linecap:butt;stroke-linejoin:miter;stroke-opacity:1"
       d="m 685,652.36218 20,0 0,-10 5,0 0,20 -5,0 0,-10 0,0"
       id="path5567-551-02"
       inkscape:connector-curvature="0" />
    <path
       style="fill:none;stroke:#000000;stroke-width:1px;stroke-linecap:butt;stroke-linejoin:miter;stroke-opacity:1"
       d="m 710,652.36218 20,0 0,0"
       id="path5769-1"
       inkscape:connector-curvature="0" />
    <path
       style="fill:none;stroke:#000000;stroke-width:1px;stroke-linecap:butt;stroke-linejoin:miter;stroke-opacity:1;fill-opacity:1"
       d="m 10,652.36218 20,0 0,-10 5,0 0,20 -5,0 0,-10 0,0"
       id="path5567-723-5"
       inkscape:connector-curvature="0" />
    <path
       style="fill:none;stroke:#000000;stroke-width:1px;stroke-linecap:butt;stroke-linejoin:miter;stroke-opacity:1;fill-opacity:1"
       d="m 10,752.36218 20,0 0,-10 5,0 0,20 -5,0 0,-10 0,0"
       id="path5567-723-9"
       inkscape:connector-curvature="0" />
    <path
       style="fill:#0000ff;stroke:#000000;stroke-width:1px;stroke-linecap:butt;stroke-linejoin:miter;stroke-opacity:1;fill-opacity:1"
       d="m 10,852.36218 20,0 0,-10 5,0 0,20 -5,0 0,-10 0,0"
       id="path5567-723-7"
       inkscape:connector-curvature="0" />
    <path
       style="fill:none;stroke:#000000;stroke-width:1px;stroke-linecap:butt;stroke-linejoin:miter;stroke-opacity:1"
       d="m 10,952.36218 20,0 0,-10 5,0 0,20 -5,0 0,-10 0,0"
       id="path5567-723-2"
       inkscape:connector-curvature="0" />
  </g>
</svg>
